<?xml version="1.0" encoding="utf-8"?>
<!-- Generator: Adobe Illustrator 16.0.0, SVG Export Plug-In . SVG Version: 6.00 Build 0)  -->
<!DOCTYPE svg PUBLIC "-//W3C//DTD SVG 1.1//EN" "http://www.w3.org/Graphics/SVG/1.1/DTD/svg11.dtd">
<svg version="1.1" xmlns="http://www.w3.org/2000/svg" xmlns:xlink="http://www.w3.org/1999/xlink" x="0px" y="0px" width="78px"
	 height="78px" viewBox="0 0 312 312" enable-background="new 0 0 312 312" xml:space="preserve">
<!-- BACKGROUND
<g id="Background_xA0_Image_1_">
	<g>
		<g>
			<path fill-rule="evenodd" clip-rule="evenodd" fill="#FCFCFC" d="M0.24,156.267c0-51.637,0.004-103.274-0.03-154.912
				C0.209,0.329,0.483,0.217,1.405,0.217c103.234,0.024,206.468,0.025,309.703-0.004c0.988,0,1.158,0.217,1.158,1.175
				c-0.027,103.194-0.027,206.388,0.003,309.583c0,1.118-0.309,1.295-1.349,1.295c-103.194-0.026-206.388-0.025-309.583-0.004
				c-0.867,0-1.123-0.144-1.123-1.083C0.243,259.541,0.24,207.903,0.24,156.267z"/>
		</g>
	</g>
</g> -->
<g id="Fogo_1_">
	<g id="Fundo_xA0_Image_1_" display="none">
		<g display="inline">
			<path fill-rule="evenodd" clip-rule="evenodd" fill="#D0AA00" d="M-216.645,120.455c0.699-1.983,1.514-3.919,2.616-5.772
				c0.277-0.467,0.439-1.023,1.126-0.899c0.525,0.095,0.687,0.545,0.872,0.996c7.358,17.924,19.175,31.994,35.644,42.356
				c12.242,7.703,22.76,17.397,30.682,29.669c0.504,0.78,0.967,1.589,1.448,2.385c1.875,3.294,3.474,6.713,4.726,10.296
				c2.068,5.935,2.784,12.057,2.465,18.305c-0.161,3.134-1.614,4.083-4.428,2.851c-2.482-1.091-4.961-2.243-7.258-3.687
				c-1.539-0.969-2.909-1.031-4.489-0.169c-2.631,1.442-5.365,1.75-8.438,1.439c-3.642-0.365-7.324-1.097-11.101,0.063
				c-2.129,0.652-4.59,0.391-6.909-0.274c-2.928-0.843-6.025-1.028-8.854-2.329c-3.395-1.553-6.765-3.104-9.822-5.318
				c-2.582-1.869-5.486-3.269-8.229-4.896c-4.079-2.42-7.479-5.536-10.74-8.867c-1.068-1.094-1.898-2.398-3.545-2.769
				c-0.686-0.155-1.068-0.802-1.267-1.456c-1.164-3.813-2.217-7.655-3.193-11.521c-0.365-1.449-0.506-2.926-0.317-4.373
				c0.836-6.433,0.115-12.987,0.668-19.456c0.566-6.618,1.756-13.176,3.347-19.622c0.901-3.65,1.933-7.267,3.06-10.853
				C-217.937,124.497-217.349,122.452-216.645,120.455z"/>
			<path fill-rule="evenodd" clip-rule="evenodd" fill="#D0AA00" d="M-26.771,134.876c0,0.735-0.008,1.471,0,2.206
				c0.045,3.747-0.977,5.584-4.59,6.896c-5.258,1.907-10.566,3.974-16.342,1.976c-0.682-0.236-1.521-0.262-2.158,0.131
				c-1.6,0.994-2.811,0.4-4.168-0.601c-5.791-4.269-11.635-8.468-17.486-12.65c-1.67-1.191-2.721-2.468-2.531-4.763
				c0.246-2.988-0.049-6.016,0.098-9.016c0.102-2.042-0.531-3.766-1.473-5.484c-9.387-17.166-21.201-32.478-35.238-46.086
				c-0.326-0.314-0.863-0.523-0.568-1.107c0.258-0.517,0.801-0.438,1.248-0.403c4.445,0.352,8.934,0.341,13.295,1.417
				c6.113,1.509,12.107,3.398,17.896,5.907c16.086,6.971,29.484,17.469,40.561,30.986c2.701,3.296,5.555,6.428,7.471,10.226
				c0.982,2.997,3.631,5.296,3.309,8.789C-27.806,127.159-26.441,130.979-26.771,134.876z"/>
			<path fill-rule="evenodd" clip-rule="evenodd" fill="#D0AA00" d="M-156.406,118.563c0.297,0,1.031-0.013,1.766,0.004
				c0.474,0.011,1.154,0.087,1.25-0.375c0.448-2.194,2.135-1.603,3.497-1.611c5.409-0.036,10.821,0.031,16.226-0.044
				c1.626-0.023,2.123,0.485,2.256,2.151c0.798,9.975,1.701,19.941,2.661,29.901c0.382,3.962,0.223,3.917-3.614,4.985
				c-4.341,1.21-7.266,0.511-10.255-3.317c-6.975-8.928-19.126-12.499-29.599-15.309c-3.91-1.049-7.838-1.863-11.815-2.595
				c-3.245-0.598,2.69-3.802,3.586-4.406c1.837-1.239,3.715-2.419,5.644-3.508C-169.447,121.416-162.708,118.321-156.406,118.563z"
				/>
		</g>
	</g>
	<g id="Meio_xA0_Image_1_" display="none">
		<path display="inline" fill-rule="evenodd" clip-rule="evenodd" fill="#FEDF50" d="M-12.978,177.769
			c0.002,0.032,0.004,0.063,0.006,0.097c0.123,2.826,0.09,6.032-0.338,8.825c-0.328,2.141-1.406,4.162-1.686,6.31
			c-0.121,0.925-0.293,1.843-1.012,2.534c-1.191,1.334-3.158,1.41-4.367,2.72c-5.354,2.729-10.633,5.626-16.119,8.076
			c-6.242,2.782-11.59,6.9-16.963,10.965c-6.719,5.075-13.533,10.022-20.271,15.067c-7.381,5.53-14.801,11.008-22.227,16.48
			c-0.592,0.436-1.158,0.906-1.854,1.188c-2.998,0.976-6.145,1.268-9.23,1.64c-4.49,0.541-8.976,1.132-13.464,1.705
			c-5.279,0.677-10.564,1.325-15.846,1.972c-6.601,0.811-13.172,1.859-19.797,2.516c-4.032,0.402-8.082,0.9-12.057,1.645
			c-3.389,0.634-6.492-0.199-9.64-0.936c-2.854-0.672-5.749-1.039-8.618-1.577c-0.398-0.01-0.826,0.068-1.192-0.08
			c-3.594-1.464-7.188-0.541-10.815-0.129c-3.956,0.445-7.898,1.054-11.868,1.371c-1.344,0.108-2.623,0.364-3.913,0.689
			c-1.453,0.364-2.739,0.146-3.824-1.036c-0.947-1.029-1.967-1.992-2.972-2.968c-0.845-0.822-1.616-1.909-2.971-0.651
			c-0.346,0.321-0.896,0.103-1.332-0.096c-1.175-0.606-1.851-1.708-2.631-2.704c-18.047-23.029-26.419-52.745-23.779-81.769
			c1.276-14.021,4.288-27.897,9.69-40.928c0.506-1.22,4.326-9.141,6.287-8.232c0.25,0.116,0.039,4.356,0.058,4.804
			c0.091,2.242,0.289,4.48,0.57,6.707c0.571,4.524,1.468,8.996,2.573,13.418c0.616,2.464,1.308,4.911,2.05,7.34
			c2.984,9.783,7.675,18.961,14.302,26.78c1.874,2.212,3.898,4.291,6.043,6.241c4.288,3.893,9.142,6.889,14.374,9.328
			c6.251,2.915,12.617,5.435,19.477,6.59c6.354,1.071,12.357,0.384,17.968-2.931c4.958-2.936,6.32-7.137,5.511-12.842
			c-0.176-1.251-0.675-2.465-0.405-3.758c0.112-0.525,0.262-1.085,0.896-1.196c0.512-0.09,0.884,0.251,1.197,0.605
			c0.761,0.861,1.221,1.916,1.753,2.911c3.16,5.904,5.884,11.984,7.261,18.213c0.118-3.509-0.26-7.378,0.271-11.248
			c0.33-2.381,0.144-4.807,0.088-7.209c-0.042-2.021,0.307-3.992,0.483-5.984c0.072-0.825,0.362-1.69,1.143-2.011
			c2.506-1.031,2.467-3.231,2.203-5.226c-1.113-8.438-3.542-16.542-6.5-24.511c-3.947-10.628-9.669-20.221-16.74-29.027
			c-4.148-5.167-8.88-9.775-13.953-14.048c-4.58-3.858-9.485-7.38-14.64-10.427c-3.499-2.067-9.393-5.209-10.978-6.332
			c-2.274-1.61,7.418-4.339,8.852-4.558c5.018-0.77,10.151-0.989,15.222-1.005c6.085-0.019,12.175-0.054,18.259,0.137
			c6.238,0.194,12.477,0.604,18.661,1.474c3.926,0.553,7.831,1.269,11.688,2.177c8.229,1.937,16.254,4.629,24.243,7.372
			c10.752,3.692,20.932,8.706,30.912,14.134c5.871,3.193,11.641,6.562,17.123,10.362c3.059,2.118,5.838,4.632,9.16,6.403
			c2.336,1.245,4.674,2.249,7.402,2.058c2.168-0.151,3.232-1.044,3.83-3.098c0.547-1.879,0.309-3.86,0.066-5.768
			c-0.225-1.788-0.354-3.518-0.156-5.316c0.045-0.401,0.074-1.586,0.578-1.775c0.453-0.17,2.006,1.714,2.459,2.309
			c1.129,1.495,2.027,3.142,2.938,4.774c5.133,9.215,8.682,19.046,11.475,29.187c2.252,8.172,4.256,16.397,4.754,24.889
			C-13.167,172.861-13.083,175.315-12.978,177.769z"/>
	</g>
	<g id="Frente_xA0_Image_1_" display="none">
		<path display="inline" fill-rule="evenodd" clip-rule="evenodd" fill="#FEEEA2" d="M-229.499,249.063
			c-0.262-0.664-0.413-1.366-0.387-2.118c0.051-1.479,0.08-2.895,0.001-4.379c-0.401-7.6-0.198-15.5,2.882-22.597
			c0.827-1.909,1.852-3.806,3.01-5.533c0.96-1.431,2.056-3.252,3.379-4.361c0.618,0.991,0.351,2.334,0.542,3.436
			c0.199,1.144,0.466,2.273,0.806,3.386c0.732,2.392,1.781,4.68,2.975,6.876c2.226,4.097,4.873,8.231,8.291,11.44
			c2.176,2.04,4.708,3.694,7.389,4.995c7.158,3.466,14.567,3.018,21.975,1.167c7.697-1.922,12.395-7.94,16.567-14.255
			c2.539-3.841,4.444-8.049,5.809-12.442c2.951-9.511,3.76-19.711,3.333-29.623c-0.38-8.825-1.78-17.361-3.387-26.028
			c-0.166-0.898-0.845-1.912-0.104-2.65c0.859-0.856,5.391,0.89,6.489,1.205c2.583,0.738,5.107,1.705,7.542,2.84
			c4.889,2.278,9.514,5.207,13.496,8.859c6.726,6.165,11.953,14.096,14.999,22.688c2.389,6.737,4.036,13.691,4.206,20.855
			c0.098,4.213-0.504,8.918,1.002,12.963c0.742,1.991,2.428,3.591,4.654,3.749c5.941,0.431,7.568-6.568,6.482-11.043
			c-1.518-6.26-5.012-12.012-7.35-17.987c-2.383-6.09-4.775-12.172-6.861-18.372c-1.244-3.697-2.569-7.37-3.711-11.098
			c-3.316-10.833-5.256-21.868-4.253-33.243c0.652-7.42,1.841-14.76,4.066-21.896c0.174-0.555,0.323-1.244,1.019-1.372
			c0.691-0.124,0.783,0.597,1.103,0.986c6.277,7.642,12.929,15.271,21.113,20.936c2.328,1.611,4.781,3.05,7.352,4.234
			c14.045,6.477,29.754,8.313,43.184,16.326c3.602,2.149,6.99,4.616,10.01,7.536c3.717,3.594,7.254,7.262,11.23,10.578
			c2.355,1.964,4.361,4.411,6.875,6.168c1.129,0.787,0.82,2.761,0.756,3.925c-0.102,1.808-0.361,3.604-0.424,5.414
			c-0.086,2.413-0.27,4.77-0.816,7.128c-1.096,4.695-2.02,9.454-3.23,14.119c-0.92,3.541-2.02,7.032-3.264,10.473
			c-1.891,5.229-4.146,10.316-6.736,15.238c-0.719,1.366-1.463,2.719-2.227,4.06c-5.064,8.862-11.365,16.752-18.553,23.925
			c-4.523,4.515-9.322,8.758-14.559,12.484c-23.742,16.903-53.597,26.722-82.858,22.766c-8.155-1.104-16.737-2.957-24.485-5.77
			c-15.044-5.462-29.971-13.912-41.452-25.167c-5.362-5.257-10.957-10.374-15.23-16.659
			C-227.751,251.901-228.906,250.576-229.499,249.063z"/>
	</g>
	<g id="Fogo-Melhor">
		<g>
			<path fill-rule="evenodd" clip-rule="evenodd" fill="#AB8707" d="M48.877,74.858c0.896-2.542,1.94-5.022,3.352-7.398
				c0.355-0.598,0.563-1.312,1.442-1.152c0.673,0.122,0.881,0.698,1.119,1.276c9.43,22.973,24.575,41.006,45.682,54.287
				c15.691,9.873,29.171,22.298,39.324,38.026c0.648,1.001,1.242,2.036,1.857,3.057c2.401,4.223,4.451,8.604,6.056,13.196
				c2.651,7.606,3.57,15.453,3.159,23.461c-0.206,4.017-2.067,5.233-5.675,3.653c-3.182-1.398-6.358-2.875-9.302-4.725
				c-1.973-1.241-3.728-1.322-5.755-0.216c-3.372,1.849-6.874,2.242-10.814,1.845c-4.667-0.469-9.388-1.406-14.229,0.079
				c-2.729,0.836-5.883,0.501-8.854-0.352c-3.753-1.08-7.723-1.318-11.348-2.985c-4.351-1.99-8.671-3.977-12.589-6.816
				c-3.309-2.396-7.032-4.188-10.546-6.275c-5.23-3.102-9.588-7.096-13.766-11.364c-1.37-1.402-2.433-3.074-4.544-3.549
				c-0.878-0.199-1.369-1.028-1.624-1.866c-1.492-4.887-2.841-9.812-4.093-14.767c-0.468-1.857-0.648-3.75-0.405-5.605
				c1.071-8.245,0.147-16.646,0.856-24.936c0.726-8.483,2.25-16.888,4.291-25.149c1.154-4.678,2.476-9.314,3.92-13.91
				C47.22,80.04,47.974,77.418,48.877,74.858z"/>
			<path fill-rule="evenodd" clip-rule="evenodd" fill="#AB8707" d="M292.235,93.343c0,0.942-0.01,1.885,0,2.827
				c0.058,4.803-1.254,7.158-5.883,8.839c-6.741,2.444-13.543,5.093-20.947,2.532c-0.873-0.303-1.948-0.335-2.764,0.169
				c-2.051,1.273-3.603,0.512-5.345-0.771c-7.423-5.472-14.912-10.853-22.411-16.213c-2.138-1.527-3.487-3.164-3.242-6.104
				c0.313-3.829-0.063-7.71,0.125-11.556c0.128-2.617-0.684-4.827-1.888-7.028c-12.033-22.001-27.176-41.626-45.165-59.068
				c-0.418-0.403-1.107-0.67-0.729-1.418c0.331-0.662,1.026-0.562,1.599-0.517c5.698,0.451,11.451,0.437,17.042,1.816
				c7.835,1.935,15.515,4.355,22.936,7.571c20.619,8.935,37.789,22.39,51.985,39.714c3.464,4.225,7.121,8.238,9.575,13.107
				c1.262,3.84,4.655,6.788,4.24,11.264C290.909,83.452,292.656,88.348,292.235,93.343z"/>
			<path fill-rule="evenodd" clip-rule="evenodd" fill="#AB8707" d="M126.084,72.435c0.38,0,1.321-0.017,2.263,0.006
				c0.608,0.014,1.479,0.112,1.602-0.481c0.574-2.812,2.736-2.054,4.481-2.064c6.934-0.046,13.871,0.04,20.797-0.057
				c2.082-0.03,2.722,0.622,2.892,2.757c1.021,12.784,2.181,25.559,3.409,38.324c0.491,5.079,0.285,5.02-4.631,6.39
				c-5.565,1.551-9.313,0.655-13.145-4.252c-8.939-11.443-24.512-16.019-37.935-19.622c-5.012-1.345-10.046-2.388-15.145-3.326
				c-4.158-0.766,3.449-4.873,4.598-5.646c2.353-1.588,4.761-3.1,7.232-4.497C109.369,76.09,118.006,72.124,126.084,72.435z"/>
		</g>
		<path fill-rule="evenodd" clip-rule="evenodd" fill="#EAC435" d="M309.913,148.317c0.003,0.041,0.003,0.081,0.008,0.124
			c0.155,3.622,0.115,7.731-0.435,11.311c-0.421,2.743-1.8,5.335-2.158,8.087c-0.156,1.186-0.376,2.361-1.298,3.248
			c-1.526,1.71-4.05,1.807-5.599,3.485c-6.862,3.497-13.626,7.211-20.657,10.351c-8,3.566-14.854,8.846-21.741,14.055
			c-8.611,6.504-17.348,12.845-25.981,19.312c-9.46,7.088-18.971,14.107-28.49,21.122c-0.758,0.559-1.484,1.162-2.375,1.522
			c-3.842,1.25-7.875,1.625-11.83,2.102c-5.755,0.693-11.505,1.45-17.257,2.185c-6.767,0.868-13.541,1.699-20.31,2.527
			c-8.459,1.039-16.882,2.383-25.374,3.225c-5.167,0.515-10.358,1.154-15.453,2.107c-4.343,0.813-8.321-0.255-12.354-1.199
			c-3.658-0.861-7.37-1.331-11.047-2.021c-0.51-0.013-1.059,0.087-1.527-0.104c-4.606-1.876-9.215-0.693-13.861-0.165
			c-5.072,0.571-10.123,1.352-15.212,1.758c-1.723,0.138-3.362,0.467-5.014,0.884c-1.862,0.466-3.509,0.187-4.901-1.329
			c-1.214-1.318-2.521-2.553-3.81-3.803c-1.081-1.055-2.07-2.447-3.807-0.835c-0.443,0.412-1.147,0.131-1.705-0.123
			c-1.507-0.776-2.373-2.189-3.375-3.465C11.22,213.161,0.491,175.074,3.876,137.876c1.634-17.972,5.495-35.756,12.418-52.457
			c0.648-1.563,5.544-11.715,8.058-10.55c0.321,0.148,0.05,5.583,0.073,6.157c0.118,2.874,0.371,5.743,0.731,8.596
			c0.733,5.798,1.882,11.53,3.299,17.198c0.789,3.159,1.675,6.294,2.626,9.408c3.825,12.538,9.838,24.302,18.332,34.323
			c2.4,2.835,4.994,5.5,7.745,8c5.495,4.989,11.718,8.828,18.422,11.955c8.013,3.736,16.171,6.966,24.963,8.446
			c8.146,1.373,15.838,0.492,23.03-3.756c6.356-3.763,8.101-9.147,7.062-16.459c-0.226-1.604-0.864-3.16-0.519-4.817
			c0.143-0.673,0.336-1.391,1.147-1.533c0.656-0.115,1.134,0.322,1.534,0.776c0.977,1.104,1.564,2.456,2.248,3.731
			c4.05,7.567,7.54,15.36,9.305,23.343c0.152-4.497-0.333-9.456,0.348-14.416c0.423-3.052,0.185-6.161,0.112-9.239
			c-0.052-2.591,0.396-5.117,0.621-7.671c0.09-1.058,0.463-2.167,1.465-2.577c3.211-1.322,3.162-4.142,2.824-6.697
			c-1.427-10.815-4.541-21.202-8.331-31.416c-5.059-13.622-12.394-25.917-21.456-37.203c-5.317-6.623-11.383-12.528-17.883-18.004
			c-5.87-4.945-12.156-9.459-18.763-13.364c-4.486-2.649-12.041-6.676-14.07-8.115c-2.917-2.064,9.507-5.561,11.345-5.842
			c6.431-0.987,13.009-1.268,19.511-1.288c7.797-0.024,15.603-0.069,23.4,0.176c7.996,0.249,15.991,0.773,23.919,1.889
			c5.032,0.708,10.036,1.625,14.979,2.791c10.547,2.482,20.832,5.933,31.071,9.448c13.781,4.732,26.826,11.158,39.62,18.116
			c7.523,4.092,14.92,8.41,21.944,13.28c3.92,2.715,7.482,5.937,11.74,8.208c2.996,1.595,5.992,2.882,9.49,2.637
			c2.778-0.194,4.143-1.339,4.906-3.971c0.703-2.409,0.395-4.947,0.088-7.392c-0.291-2.292-0.454-4.509-0.2-6.813
			c0.055-0.515,0.094-2.034,0.738-2.275c0.583-0.218,2.571,2.196,3.154,2.959c1.446,1.916,2.596,4.027,3.765,6.119
			c6.576,11.811,11.124,24.412,14.706,37.409c2.887,10.474,5.452,21.016,6.092,31.899
			C309.67,142.027,309.776,145.173,309.913,148.317z"/>
		<path fill-rule="evenodd" clip-rule="evenodd" fill="#FFDF78" d="M32.401,239.692c-0.335-0.851-0.528-1.75-0.496-2.714
			c0.065-1.896,0.103-3.71,0.002-5.612c-0.516-9.741-0.253-19.867,3.693-28.963c1.061-2.446,2.373-4.877,3.86-7.091
			c1.229-1.834,2.633-4.169,4.331-5.59c0.792,1.271,0.448,2.991,0.693,4.403c0.255,1.465,0.599,2.913,1.034,4.339
			c0.937,3.065,2.283,5.998,3.813,8.813c2.851,5.25,6.243,10.55,10.626,14.663c2.789,2.614,6.033,4.734,9.47,6.401
			c9.174,4.442,18.669,3.867,28.165,1.496c9.865-2.464,15.886-10.177,21.232-18.271c3.254-4.922,5.698-10.315,7.445-15.946
			c3.783-12.19,4.819-25.264,4.271-37.968c-0.486-11.311-2.281-22.252-4.341-33.36c-0.213-1.151-1.082-2.451-0.133-3.397
			c1.102-1.097,6.909,1.141,8.316,1.544c3.312,0.947,6.546,2.187,9.665,3.64c6.269,2.92,12.193,6.674,17.298,11.354
			c8.621,7.902,15.32,18.066,19.226,29.08c3.062,8.636,5.172,17.549,5.39,26.729c0.125,5.4-0.646,11.431,1.284,16.615
			c0.951,2.552,3.111,4.603,5.965,4.806c7.614,0.551,9.699-8.42,8.31-14.154c-1.944-8.023-6.425-15.396-9.42-23.055
			c-3.055-7.805-6.121-15.6-8.795-23.546c-1.595-4.739-3.292-9.446-4.756-14.224c-4.251-13.884-6.737-28.028-5.452-42.607
			c0.836-9.51,2.36-18.918,5.212-28.063c0.222-0.711,0.415-1.594,1.306-1.758c0.887-0.159,1.004,0.765,1.412,1.264
			c8.046,9.794,16.572,19.572,27.062,26.832c2.984,2.065,6.129,3.91,9.423,5.427c17.998,8.302,38.135,10.655,55.346,20.925
			c4.615,2.755,8.962,5.917,12.831,9.659c4.762,4.606,9.295,9.307,14.395,13.558c3.019,2.517,5.589,5.654,8.812,7.905
			c1.443,1.009,1.051,3.539,0.966,5.031c-0.128,2.317-0.463,4.619-0.541,6.939c-0.11,3.093-0.345,6.112-1.049,9.136
			c-1.404,6.018-2.586,12.117-4.14,18.097c-1.177,4.538-2.589,9.012-4.184,13.421c-2.421,6.703-5.314,13.224-8.634,19.531
			c-0.918,1.751-1.873,3.485-2.854,5.203c-6.491,11.359-14.564,21.472-23.776,30.664c-5.8,5.786-11.95,11.226-18.662,16.001
			c-30.428,21.665-68.694,34.249-106.195,29.178c-10.454-1.413-21.454-3.789-31.381-7.394c-19.283-7.001-38.413-17.831-53.13-32.256
			c-6.871-6.738-14.043-13.297-19.518-21.353C34.641,243.332,33.162,241.633,32.401,239.692z"/>
	</g>
</g>
</svg>
